<?xml version="1.0" encoding="UTF-8" standalone="no"?>
<!DOCTYPE svg PUBLIC "-//W3C//DTD SVG 1.1//EN" "http://www.w3.org/Graphics/SVG/1.1/DTD/svg11.dtd">
<svg width="100%" height="100%" viewBox="0 0 1300 1300" version="1.1" xmlns="http://www.w3.org/2000/svg" xmlns:xlink="http://www.w3.org/1999/xlink" xml:space="preserve" xmlns:serif="http://www.serif.com/" style="fill-rule:evenodd;clip-rule:evenodd;stroke-linejoin:round;stroke-miterlimit:1.41421;">
    <g transform="matrix(1.65914,0,0,1.65914,-208.507,69.956)">
        <g id="Layer1">
            <circle cx="518.246" cy="350.41" r="373.674" style="fill:rgb(14,60,135);"/>
        </g>
    </g>
    <g id="path3049" transform="matrix(0.910525,-0.413455,-0.413455,-0.910525,420.47,1387.39)">
        <path d="M536.938,27.344L536.625,27.563C474.302,77.237 423.394,125.507 378.063,174.25L377.781,174.531L378.031,174.875C397.739,203.987 422.469,222.68 444.719,254.438C413.53,309.681 388.23,352.307 369.469,452.219C294.699,482.947 156.346,566.904 101.5,696.688C83.048,693.884 45.982,686.228 8.344,669.313L6.813,668.625L7.719,670.031C12.071,676.818 22.551,687.47 36.688,698.719C50.73,709.893 68.369,721.631 87.156,730.594C74.618,769.376 62.451,812.592 63.469,835.844L63.5,836.094L63.688,836.25C105.09,865.209 211.67,910.803 286.406,919.813L286.906,919.875L286.969,919.344C291.437,872.358 295.556,828.743 304.938,796.375C379,798.124 460.358,790.707 508.344,776.531C551.586,806.714 665.168,889.595 867.688,865.969C882.598,903.374 887.727,922.132 896.25,967.5L897.25,967.5C906.252,931.458 905.435,900.109 909.219,861.75C938.733,857.632 974.546,851.592 994.375,842.563L994.656,842.438L994.687,842.125C996.1,768.43 980.739,692.309 961.5,599.25L961.406,598.781L960.938,598.844C927.534,604.149 888.993,622.397 847.313,632.531C814.081,573.499 752.416,506.77 703.969,473.906C717.099,351.948 701.36,245.159 617.844,114.625C629.453,96.883 649.099,77.817 667.781,51.781L668.469,50.813L667.313,51C659.41,52.16 647.899,59.693 635.75,68.719C623.737,77.643 611.202,87.998 601.313,95.125C585.358,75.513 561.347,46.129 537.25,27.563L536.938,27.344ZM536.906,28.625C560.896,47.197 584.957,76.594 600.844,96.125L601.125,96.5L601.531,96.219C611.521,89.05 624.225,78.535 636.344,69.531C647.773,61.04 658.603,54.101 666.031,52.406C647.602,77.819 628.341,96.671 616.844,114.344L616.656,114.594L616.844,114.875C700.477,245.476 716.116,352.077 702.938,474.094L702.906,474.375L703.156,474.531C751.528,507.26 813.482,574.319 846.625,633.344L846.813,633.656L847.156,633.594C888.919,623.493 927.459,605.317 960.625,599.938C979.786,692.626 995.046,768.472 993.688,841.781C973.977,850.667 938.122,856.715 908.688,860.813L908.281,860.875L908.25,861.281C904.497,899.059 905.178,929.943 896.781,965C888.515,921.336 883.249,902.212 868.5,865.25L868.344,864.875L867.969,864.938C665.262,888.716 551.907,805.73 508.719,775.594L508.531,775.438L508.313,775.5C460.476,789.685 378.767,797.161 304.563,795.375L304.188,795.375L304.063,795.719C294.596,828.162 290.497,871.786 286.031,918.75C211.712,909.648 105.655,864.285 64.469,835.563C63.555,812.577 75.685,769.23 88.219,730.5L88.375,730.063L87.969,729.875C69.128,720.931 51.397,709.145 37.313,697.938C24.125,687.444 14.335,677.565 9.656,670.938C47.029,687.464 83.58,695.016 101.719,697.75L102.094,697.813L102.25,697.438C156.872,567.714 295.502,483.627 370.094,453.031L370.344,452.938L370.406,452.656C389.188,352.47 414.446,310.082 445.75,254.625L445.875,254.344L445.719,254.094C423.425,222.195 398.703,203.476 379.094,174.656C424.243,126.135 474.905,78.072 536.906,28.625L536.906,28.625ZM537.719,75.469L537.406,75.688C522.212,86.051 498.444,106.236 476.75,127.063C455.056,147.89 435.461,169.304 428.594,182.313L428.438,182.625L428.656,182.875C442.831,198.767 455.45,214.639 465.75,226.313L466.125,226.75L466.5,226.313C499.52,187.595 557.534,133.253 576.063,116.188L576.344,115.906L576.156,115.563C568.442,102.532 552.225,88.312 538.031,75.75L537.719,75.469L537.719,75.469ZM537.656,76.75C551.66,89.143 567.478,103.148 575.063,115.75C556.362,132.981 499.152,186.589 466.125,225.219C455.98,213.687 443.594,198.147 429.656,182.5C436.499,169.756 455.926,148.433 477.438,127.781C498.971,107.108 522.548,87.102 537.656,76.75ZM596.438,143.281L596.031,143.906C572.96,178.633 543.824,240.311 532.313,311.688L532.281,311.844L532.344,311.969C555.027,362.33 561.166,390.534 561.25,414L561.25,414.438L561.688,414.5C593.757,419.418 638.225,441.778 667.156,450.094L667.656,450.25L667.781,449.719C689.545,340.983 658.122,231.793 596.875,143.875L596.438,143.281L596.438,143.281ZM596.469,145.094C657.2,232.567 688.307,340.979 666.875,448.969C638.252,440.631 594.404,418.657 562.25,413.594C562.098,390.056 555.881,361.75 533.344,311.688C544.779,240.961 573.565,179.772 596.469,145.094ZM540.344,185.344C540.296,185.39 540.267,185.454 540.219,185.5C425.287,294.746 366.798,455.04 439.875,638.25L440.031,638.656L440.438,638.563C471.273,630.859 494.302,603.405 511.719,582.75L511.938,582.5L511.781,582.188C474.578,511.781 468.468,445.207 478.375,379.969C488.282,314.731 514.227,250.827 541.156,185.875L540.344,185.344ZM539.25,187.844C512.669,251.991 487.186,315.205 477.375,379.813C467.459,445.114 473.593,511.862 510.75,582.344C493.437,602.876 470.707,629.728 440.625,637.438C368.313,455.662 425.754,296.744 539.25,187.844ZM508.719,446.875L508.719,447.406C508.527,470.71 514.346,514.832 532.25,546.313L532.375,546.563L532.625,546.563C673.595,563.215 773.749,638.083 862.313,765.063L863.219,764.656C863.203,764.592 863.172,764.533 863.156,764.469C823.101,597.218 672.326,460.659 509.25,446.938L508.719,446.875ZM509.719,447.969C671.302,461.833 820.786,596.75 861.563,762.281C773.345,636.61 673.278,562.28 533,545.625C515.462,514.643 509.613,471.171 509.719,447.969ZM372.625,480.625L372.031,480.813C305.084,502.195 212.915,561.79 135.781,700.688L135.438,701.313L136.125,701.438C189.621,710.081 244.332,710.441 301.031,695.563L301.281,695.469L301.375,695.219C318.029,648.172 347.489,619.502 392.438,590.063L392.75,589.875L392.656,589.531C382.633,552.396 376.581,515.144 372.688,481.219L372.625,480.625ZM371.781,481.938C375.667,515.626 381.671,552.544 391.594,589.406C346.808,618.779 317.216,647.634 300.5,694.656C244.321,709.35 190.099,709.027 137.031,700.531C213.772,562.686 305.247,503.352 371.781,481.938ZM552.719,581.969L552.531,582.25C483.474,693.653 363.125,731.032 229.188,741.719L229.063,742.688C287.101,765.981 364.762,773.334 440.375,754.875C515.988,736.416 589.54,692.106 639.219,612.063L639.5,611.656L639.063,611.375C615.959,597.782 594.145,589.467 553.031,582.031L552.719,581.969ZM553.188,583.063C593.745,590.422 615.303,598.647 638.094,612C588.565,691.526 515.385,735.533 440.125,753.906C365.589,772.102 289.037,765.11 231.438,742.531C364.528,731.612 484.254,693.993 553.188,583.063ZM934.75,639.969L934.281,640.156C910.711,648.128 885.772,657.288 860.844,665.031L860.313,665.188L860.531,665.688C870.034,690.53 896.181,751.948 902.438,825.156L902.469,825.625L902.937,825.625C927.007,825.305 943.098,821.52 957.094,818.594L957.469,818.531L957.5,818.156C961.799,770.539 948.883,684.652 934.906,640.469L934.75,639.969L934.75,639.969ZM934.063,641.281C947.896,685.313 960.674,770.484 956.5,817.719C942.672,820.617 926.861,824.236 903.375,824.594C897.056,751.787 871.201,690.809 861.625,665.844C886.236,658.18 910.82,649.152 934.063,641.281ZM624.5,676.438L624.25,676.719C595.949,709.013 571.601,729.496 542.594,750.625L542.125,750.969L542.531,751.375C609.566,823.072 750.411,849.165 855.438,836.344L856.125,836.25L855.813,835.625C832.67,788.624 825.052,750.188 759.438,694.406L759.281,694.25L759.031,694.281C719.569,699.881 682.918,706.159 624.844,676.625L624.5,676.438ZM624.75,677.656C682.719,707.037 719.684,700.891 758.969,695.313C823.951,750.618 831.675,788.645 854.594,835.406C750.114,847.967 610.303,821.896 543.656,751.094C572.397,730.129 596.667,709.656 624.75,677.656ZM113.094,743.094L112.906,743.563C101.877,770.246 97.755,796.431 94.188,818.344L94.125,818.719L94.438,818.875C109.033,827.067 141.377,840.979 174.219,852.969C207.061,864.958 240.301,875.015 256.875,875.375L257.281,875.406L257.375,875.031C266.8,842.362 268.348,829.841 274.406,791.812L274.5,791.281L273.969,791.25C258.332,789.916 226.401,781.447 194.344,771.563C162.286,761.678 130.038,750.364 113.562,743.281L113.094,743.094L113.094,743.094ZM113.656,744.375C130.33,751.502 162.243,762.72 194.063,772.531C225.837,782.329 257.286,790.68 273.313,792.156C267.368,829.501 265.772,842.246 256.531,874.344C240.215,873.864 207.144,863.926 174.563,852.031C141.939,840.122 109.834,826.295 95.25,818.156C98.785,796.434 102.876,770.631 113.656,744.375Z" style="fill:rgb(242,240,229);fill-rule:nonzero;stroke:rgb(242,240,229);stroke-width:11px;"/>
    </g>
</svg>
